<svg xmlns="http://www.w3.org/2000/svg" width="1281" height="33.534" viewBox="0 0 1281 33.534">
  <g id="Grupo_158" data-name="Grupo 158" transform="translate(0.5 0.466)">
    <path id="Subtração_1" data-name="Subtração 1" d="M1291-664.432H11v-32.5h3.59c1.554.03,3.1.071,4.605.122a438.909,438.909,0,0,1,43.831,3.967v-.2c1.028.2,2.034.4,3.263.642,7.771,1.073,15.637,2.266,23.244,3.421l.032,0c9.461,1.436,19.244,2.92,28.944,4.188,10.836,1.414,21.188,2.439,30.768,3.047,18.46-.541,37.241-2.909,55.4-5.2,20.817-2.625,42.339-5.339,63.58-5.339,5.465,0,10.812.181,15.893.539,12.6.887,24.848,2.955,36.693,4.954,9.227,1.557,18.768,3.168,28.442,4.216a291.924,291.924,0,0,0,31.706,1.632c13.548,0,28.375-.814,45.329-2.488,15.132-1.494,30.552-3.523,45.464-5.485l.448-.059c27.719-3.647,56.383-7.419,85.084-7.963h13.92c1.537.03,3.072.071,4.562.122,12.654.429,26.121,1.628,42.381,3.775v-.005l.047.009.043.008c9.335,1.234,18.766,2.664,27.885,4.048,9.467,1.436,19.253,2.921,28.956,4.189,10.659,1.391,20.849,2.406,30.287,3.017,18.14-.592,36.594-2.92,54.441-5.171,20.813-2.625,42.336-5.339,63.575-5.339,5.464,0,10.812.182,15.894.539,12.6.887,24.848,2.955,36.693,4.954h.005c9.227,1.557,18.769,3.168,28.437,4.215a291.924,291.924,0,0,0,31.706,1.632c13.549,0,28.376-.814,45.329-2.488,15.132-1.494,30.552-3.523,45.464-5.485l.448-.059c27.72-3.647,56.383-7.419,85.083-7.963h13.92c1.537.03,3.072.071,4.562.122,16.453.557,32.842,3.383,48.692,6.117l.009,0c8.405,1.449,17.1,2.948,25.533,4.05a196.976,196.976,0,0,0,25.079,1.855c.425.009.856.013,1.282.013,10.752,0,20.508-2.8,30.838-5.763,8.818-2.53,17.933-5.146,28.609-6.369v32.472Z" transform="translate(-11 697)" fill="#034798" stroke="rgba(0,0,0,0)" stroke-miterlimit="10" stroke-width="1"/>
  </g>
</svg>
