<svg xmlns="http://www.w3.org/2000/svg" xmlns:xlink="http://www.w3.org/1999/xlink" width="1280" height="133" viewBox="0 0 1280 133">
  <defs>
    <clipPath id="clip-path">
      <rect id="Retângulo_88" data-name="Retângulo 88" width="1280" height="133" transform="translate(-36 1400.011)" fill="#f4d400" stroke="#707070" stroke-width="1"/>
    </clipPath>
    <clipPath id="clip-path-2">
      <rect id="Retângulo_83" data-name="Retângulo 83" width="1586.314" height="73.677" fill="none"/>
    </clipPath>
  </defs>
  <g id="Grupo_de_máscara_1" data-name="Grupo de máscara 1" transform="translate(36 -1400.011)" clip-path="url(#clip-path)">
    <g id="Grupo_32" data-name="Grupo 32" transform="translate(-311.041 1404.042)">
      <g id="Grupo_29" data-name="Grupo 29" transform="translate(1555.458 120.241) rotate(180)">
        <g id="Grupo_31" data-name="Grupo 31" transform="translate(0 0)">
          <path id="Caminho_100" data-name="Caminho 100" d="M1269.295,17.561C1208.188,11.517,1148.748,1.6,1085.937.181c-103.949-2.345-203.222,18.8-307.278,20.167C675.524,21.708,574.328,3.564,471.623,7.6c-98.258,3.863-192.985,27.832-289.56,19.558-39.152-3.354-74.3-11.8-111.669-17.6C47.679,6.04,24.036,3.523,0,2.016V23c36.873,5.7,73.437,13.344,112.193,16.147,103.013,7.452,205.88-20.006,309.58-14.16,42.735,2.409,82.094,10.348,124.236,14,142.984,12.4,285.876-25.708,432.035-21.748C1043.114,19,1104.489,29.022,1167.469,35.6c37.427,3.911,77.438,6.51,115.832,5.5V18.854q-7.059-.6-14.006-1.293" fill="#066ec7"/>
          <path id="Caminho_101" data-name="Caminho 101" d="M1167.469,18.652c-62.98-6.581-124.355-16.6-189.424-18.362C831.885-3.67,688.993,34.44,546.009,22.038c-42.142-3.655-81.5-11.595-124.236-14-103.7-5.846-206.568,21.611-309.58,14.16C73.437,19.39,36.873,11.747,0,6.047V34.467H1283.3V24.157c-38.395,1.006-78.406-1.594-115.832-5.5" transform="translate(0 16.951)" fill="#034798"/>
        </g>
      </g>
      <g id="Grupo_30" data-name="Grupo 30" transform="translate(0)">
        <g id="Grupo_28" data-name="Grupo 28" clip-path="url(#clip-path-2)">
          <path id="Caminho_100-2" data-name="Caminho 100" d="M1569,144.235c-75.534-6.043-149.01-15.962-226.652-17.379-128.493-2.345-251.207,18.8-379.833,20.167-127.487,1.36-252.578-16.785-379.533-12.747-121.459,3.863-238.552,27.832-357.931,19.558-48.4-3.354-91.85-11.8-138.036-17.6C58.937,132.715,29.712,130.2,0,128.69v20.981c45.58,5.7,90.777,13.344,138.684,16.147,127.336,7.452,254.492-20.006,382.679-14.16,52.826,2.409,101.478,10.348,153.57,14,176.746,12.4,353.377-25.708,534.047-21.748,80.434,1.763,156.3,11.781,234.151,18.362,46.264,3.911,95.723,6.51,143.183,5.5V145.528q-8.726-.6-17.314-1.293" transform="translate(0 -104.415)" fill="#066ec7"/>
          <path id="Caminho_101-2" data-name="Caminho 101" d="M1443.131,241.791c-77.85-6.581-153.717-16.6-234.151-18.362-180.67-3.96-357.3,34.15-534.047,21.748-52.093-3.655-100.745-11.595-153.57-14-128.186-5.846-255.342,21.611-382.679,14.16C90.777,242.529,45.58,234.885,0,229.185v28.421H1586.314V247.3c-47.46,1.006-96.919-1.594-143.183-5.5" transform="translate(0 -183.929)" fill="#034798"/>
          <path id="Caminho_102" data-name="Caminho 102" d="M225.051,49.419c119.38,8.274,236.473-15.7,357.932-19.558,126.955-4.038,252.046,14.107,379.532,12.747,128.626-1.372,251.34-22.513,379.833-20.167C1419.99,23.857,1493.465,33.776,1569,39.819q8.582.687,17.314,1.293V6.6c-88.193-6.859-177.942-9.983-263.363-1.362-51.245,5.172-98.091,14.376-149.61,19.248C982.64,42.524,782.3-1.789,585.878,7.61,497.988,11.815,417.6,26.564,330.152,31.653,219.513,38.091,106.921,28.66,0,16.685v7.589c29.712,1.507,58.938,4.024,87.015,7.548,46.186,5.8,89.64,14.242,138.036,17.6" transform="translate(0 0)" fill="#27aaf2"/>
        </g>
      </g>
    </g>
  </g>
</svg>
