<?xml version="1.0" encoding="utf-8"?>
<!-- Generator: Adobe Illustrator 27.1.1, SVG Export Plug-In . SVG Version: 6.00 Build 0)  -->
<svg class="cor-onda" version="1.1" id="Camada_1" xmlns="http://www.w3.org/2000/svg" xmlns:xlink="http://www.w3.org/1999/xlink" x="0px" y="0px"
	 viewBox="0 0 1281 33.5" style="enable-background:new 0 0 1281 33.5;" xml:space="preserve">
<g id="Grupo_158"  transform="translate(0.5 0.466)">
	<path id="Subtração_1" d="M1280,32.6H0V0.1h3.6c1.6,0,3.1,0.1,4.6,0.1c14.7,0.6,29.3,1.9,43.8,4V4c1,0.2,2,0.4,3.3,0.6
		C63.1,5.7,70.9,6.9,78.5,8h0c9.5,1.4,19.2,2.9,28.9,4.2c10.8,1.4,21.2,2.4,30.8,3c18.5-0.5,37.2-2.9,55.4-5.2
		c20.8-2.6,42.3-5.3,63.6-5.3c5.5,0,10.8,0.2,15.9,0.5c12.6,0.9,24.8,3,36.7,5c9.2,1.6,18.8,3.2,28.4,4.2
		c10.5,1.1,21.1,1.7,31.7,1.6c13.5,0,28.4-0.8,45.3-2.5c15.1-1.5,30.6-3.5,45.5-5.5l0.4-0.1c27.7-3.6,56.4-7.4,85.1-8h13.9
		c1.5,0,3.1,0.1,4.6,0.1c12.7,0.4,26.1,1.6,42.4,3.8v0l0,0l0,0c9.3,1.2,18.8,2.7,27.9,4c9.5,1.4,19.3,2.9,29,4.2
		c10.7,1.4,20.8,2.4,30.3,3c18.1-0.6,36.6-2.9,54.4-5.2c20.8-2.6,42.3-5.3,63.6-5.3c5.5,0,10.8,0.2,15.9,0.5c12.6,0.9,24.8,3,36.7,5
		h0c9.2,1.6,18.8,3.2,28.4,4.2c10.5,1.1,21.1,1.7,31.7,1.6c13.5,0,28.4-0.8,45.3-2.5c15.1-1.5,30.6-3.5,45.5-5.5l0.4-0.1
		c27.7-3.6,56.4-7.4,85.1-8h13.9c1.5,0,3.1,0.1,4.6,0.1c16.5,0.6,32.8,3.4,48.7,6.1h0c8.4,1.4,17.1,2.9,25.5,4
		c8.3,1.2,16.7,1.8,25.1,1.9c0.4,0,0.9,0,1.3,0c10.8,0,20.5-2.8,30.8-5.8c8.8-2.5,17.9-5.1,28.6-6.4L1280,32.6L1280,32.6z"/>
</g>
</svg>
